<svg xmlns="http://www.w3.org/2000/svg" width="200" height="52" fill="none" viewBox="0 0 200 52"><clipPath id="a"><path d="M0 0h200v51.282H0z"/></clipPath><g clip-path="url(#a)"><g fill="#542ded"><path d="M20.363 38.462a4.273 4.273 0 1 0 0 8.546 4.273 4.273 0 0 0 0-8.547m17.116.001a4.273 4.273 0 1 0 0 8.546 4.273 4.273 0 0 0 0-8.547" opacity=".64"/><path d="M41.667 8.547H13.76a1.07 1.07 0 0 0-.706.299l4.274 18.632c0 .15 0 .278.15.428a5.28 5.28 0 0 0 4.102 1.923h15.9a9.636 9.636 0 0 0 9.53-9.552v-6.41a5.34 5.34 0 0 0-5.342-5.32"/><path d="M38.76 35.876H24.23a9.87 9.87 0 0 1-9.679-7.735L10.278 9.274A2.906 2.906 0 0 0 7.5 7.009H5.64a1.368 1.368 0 0 1 0-2.735H7.5a5.62 5.62 0 0 1 5.513 4.401l4.273 18.868a7.16 7.16 0 0 0 7.009 5.598h14.53a1.367 1.367 0 1 1 0 2.735z" opacity=".8"/><path d="M73.872 23.333q-2.616 0-4.18-1.615-1.563-1.64-1.718-4.462l-.025-.871.025-.847q.155-2.769 1.718-4.41c1.563-1.64 2.436-1.64 4.18-1.64q2.82 0 4.359 1.794 1.564 1.795 1.564 4.872v.461q0 .257-.18.436a.56.56 0 0 1-.41.154h-8.897v.23q.077 1.667 1.025 2.847.949 1.18 2.513 1.18 1.206 0 1.949-.462.769-.487 1.154-1 .23-.308.359-.359.127-.077.436-.077h1.128a.58.58 0 0 1 .384.128q.18.129.18.334 0 .564-.692 1.359c-.692.795-1.12.991-1.975 1.384q-1.256.564-2.897.564m3.59-7.871v-.077q0-1.795-.975-2.923-.975-1.13-2.615-1.129-1.666 0-2.616 1.129-.948 1.128-.948 2.923v.077zm9.758 7.871q-2.743 0-4.282-1.538-1.538-1.564-1.615-4.36l-.026-1.025.026-1.025q.077-2.796 1.615-4.334 1.539-1.564 4.282-1.564 1.846 0 3.103.667 1.282.641 1.897 1.615.641.975.693 1.949.026.23-.18.41a.56.56 0 0 1-.41.18h-1.128q-.257 0-.385-.103-.127-.127-.256-.436-.462-1.256-1.282-1.769-.795-.538-2.026-.538-1.616 0-2.564 1-.949 1-1.026 3.05l-.025.898.025.898q.077 2.05 1.026 3.051.948 1 2.564 1 1.257 0 2.051-.513.795-.538 1.257-1.795.127-.308.256-.41.128-.128.385-.128h1.128q.23 0 .41.18.206.179.18.41-.052.948-.693 1.923-.615.974-1.897 1.64-1.257.667-3.103.667m13.149 0q-2.82 0-4.359-1.59-1.513-1.59-1.615-4.23l-.026-1.103.026-1.102q.102-2.64 1.64-4.231 1.565-1.59 4.334-1.59t4.308 1.59q1.564 1.59 1.667 4.23.051.565.051 1.103 0 .54-.051 1.103-.103 2.64-1.641 4.23-1.513 1.59-4.334 1.59m0-1.923q1.64 0 2.59-1.025.974-1.052 1.051-3 .026-.256.026-.975 0-.717-.026-.974-.077-1.949-1.051-2.974-.95-1.052-2.59-1.052-1.641 0-2.615 1.052-.95 1.025-1.026 2.974l-.025.974.025.975q.077 1.948 1.026 3 .974 1.025 2.615 1.025m8.828 1.667a.65.65 0 0 1-.436-.154.65.65 0 0 1-.154-.436V10.333q0-.255.154-.41a.6.6 0 0 1 .436-.18h1.076q.257 0 .411.18.154.155.154.41v.872q1.384-1.718 3.743-1.718 2.82 0 4 2.36.615-1.078 1.744-1.719 1.154-.64 2.564-.64 2.103 0 3.436 1.435t1.333 4.154v7.41q0 .257-.179.436a.56.56 0 0 1-.411.154h-1.102a.65.65 0 0 1-.436-.154.65.65 0 0 1-.154-.436v-7.18q0-2.05-.846-2.922-.846-.898-2.231-.898-1.23 0-2.128.923-.872.898-.872 2.898v7.18q0 .256-.179.435a.56.56 0 0 1-.411.154h-1.128a.65.65 0 0 1-.436-.154.65.65 0 0 1-.154-.436v-7.18q0-2.025-.897-2.922-.872-.898-2.18-.898-1.23 0-2.128.898-.872.897-.872 2.897v7.205q0 .257-.179.436a.56.56 0 0 1-.41.154zm21.735 0a.65.65 0 0 1-.436-.154.65.65 0 0 1-.154-.436V10.333q0-.255.154-.41a.6.6 0 0 1 .436-.18h1.077a.51.51 0 0 1 .41.18q.154.155.154.41v.872q1.385-1.718 3.744-1.718 2.82 0 4 2.36.616-1.078 1.743-1.719 1.155-.64 2.564-.64 2.104 0 3.436 1.435 1.334 1.436 1.334 4.154v7.41q0 .257-.18.436a.55.55 0 0 1-.41.154h-1.103a.65.65 0 0 1-.436-.154.65.65 0 0 1-.153-.436v-7.18q0-2.05-.847-2.922-.846-.898-2.23-.898-1.231 0-2.129.923-.87.898-.871 2.898v7.18q0 .256-.18.435a.55.55 0 0 1-.41.154h-1.128a.65.65 0 0 1-.436-.154.65.65 0 0 1-.154-.436v-7.18q0-2.025-.897-2.922-.872-.898-2.18-.898-1.23 0-2.128.898-.872.897-.872 2.897v7.205q0 .257-.179.436a.56.56 0 0 1-.411.154zm26.428.256q-2.615 0-4.179-1.615-1.565-1.64-1.718-4.462l-.026-.871.026-.847q.153-2.769 1.718-4.41 1.564-1.64 4.179-1.64 2.821 0 4.359 1.794 1.564 1.795 1.564 4.872v.461q0 .257-.179.436a.56.56 0 0 1-.41.154h-8.898v.23q.077 1.667 1.026 2.847.948 1.18 2.513 1.18 1.204 0 1.948-.462.77-.487 1.154-1 .23-.308.359-.359.129-.077.436-.077h1.128q.23 0 .385.128a.4.4 0 0 1 .179.334q0 .564-.692 1.359-.691.795-1.974 1.384-1.256.564-2.898.564m3.59-7.872v-.076q0-1.795-.974-2.924-.975-1.128-2.616-1.128-1.667 0-2.615 1.128-.948 1.129-.949 2.924v.076zm5.015 7.616a.65.65 0 0 1-.435-.154.65.65 0 0 1-.154-.436V10.36q0-.256.154-.436a.6.6 0 0 1 .435-.18h1.077q.283 0 .436.18.18.154.18.436v1.128q1.05-1.743 3.564-1.743h1q.282 0 .436.153.153.154.154.436v.95a.65.65 0 0 1-.154.435q-.154.153-.436.154h-1.462q-1.409 0-2.231.82-.794.82-.794 2.231v7.564q0 .257-.18.436a.65.65 0 0 1-.436.154zm13.108.256q-2.743 0-4.282-1.538-1.539-1.564-1.615-4.36l-.026-1.025.026-1.025q.076-2.796 1.615-4.334 1.54-1.564 4.282-1.564 1.846 0 3.103.667 1.282.641 1.897 1.615.642.975.692 1.949.027.23-.179.41a.56.56 0 0 1-.41.18h-1.129q-.255 0-.384-.103-.128-.127-.257-.436-.46-1.256-1.282-1.769-.794-.539-2.025-.539-1.615 0-2.564 1t-1.026 3.052l-.026.897.026.898q.077 2.05 1.026 3.051.949 1 2.564 1 1.257 0 2.051-.513.796-.538 1.256-1.795.13-.308.257-.41.129-.128.384-.128h1.129q.23 0 .41.18.206.179.179.41-.05.948-.692 1.923-.615.974-1.897 1.64-1.257.667-3.103.667m13.021 0q-2.615 0-4.18-1.615-1.563-1.64-1.718-4.462l-.025-.871.025-.847q.155-2.769 1.718-4.41 1.565-1.64 4.18-1.64 2.82 0 4.359 1.794 1.564 1.795 1.564 4.872v.461q0 .257-.18.436a.55.55 0 0 1-.41.154h-8.898v.23q.078 1.667 1.026 2.847.95 1.18 2.513 1.18 1.206 0 1.949-.462.768-.487 1.154-1 .23-.308.358-.359.129-.077.436-.077h1.129a.58.58 0 0 1 .384.128.39.39 0 0 1 .18.334q0 .564-.693 1.359-.692.795-1.974 1.384-1.256.564-2.897.564m3.589-7.872v-.076q0-1.795-.974-2.924-.974-1.128-2.615-1.128-1.666 0-2.616 1.128-.949 1.129-.949 2.924v.076z"/><path fill-rule="evenodd" d="M121.795 28.205H75.321l-8.654 11.539 8.654 11.538h41.346zm2.564 0-5.128 23.077h8.013l8.654-11.538-8.654-11.539z" clip-rule="evenodd"/></g><path fill="#fff" d="M76.808 44.872q-.154 0-.262-.108c-.108-.108-.108-.159-.108-.262V34.488a.4.4 0 0 1 .093-.277.38.38 0 0 1 .277-.108h1.415q.17 0 .277.108c.107.108.108.164.108.277v3.954H83.1v-3.954q0-.17.108-.277c.108-.107.159-.108.261-.108H84.9q.17 0 .262.108a.38.38 0 0 1 .107.277v10.016q0 .154-.107.261a.33.33 0 0 1-.262.108h-1.43q-.154 0-.262-.108c-.108-.108-.108-.159-.108-.262v-4.107h-4.492v4.107q0 .154-.108.262c-.108.108-.164.108-.277.108zm12.991 0q-.154 0-.261-.108c-.107-.108-.108-.159-.108-.262v-8.476h-2.846q-.154 0-.261-.108c-.107-.108-.108-.164-.108-.277v-1.154a.4.4 0 0 1 .092-.277.38.38 0 0 1 .277-.108h7.862q.17 0 .277.108c.107.108.107.164.107.277v1.154q0 .17-.107.277c-.107.107-.164.108-.277.108h-2.831v8.476q0 .154-.108.262a.33.33 0 0 1-.261.108zm6.346 0a.36.36 0 0 1-.262-.108.36.36 0 0 1-.107-.262V34.488a.4.4 0 0 1 .092-.277.38.38 0 0 1 .277-.108h1.246q.293 0 .462.293l2.969 5.507 2.969-5.507q.17-.293.462-.293h1.23q.17 0 .277.108c.107.108.108.164.108.277v10.016a.37.37 0 0 1-.108.276.4.4 0 0 1-.277.093h-1.323q-.153 0-.261-.108c-.108-.108-.108-.159-.108-.262v-6.615l-2.138 4.062q-.17.338-.508.338h-.646q-.324 0-.523-.338l-2.139-4.062v6.616q0 .154-.108.261a.33.33 0 0 1-.261.108zm11.869 0q-.153 0-.261-.108c-.108-.108-.108-.159-.108-.262v-10.03q0-.17.108-.262a.36.36 0 0 1 .261-.108h1.447q.169 0 .261.108a.33.33 0 0 1 .108.262v8.554h4.877q.169 0 .277.107a.36.36 0 0 1 .107.262v1.108q0 .154-.107.261a.38.38 0 0 1-.277.108z"/></g></svg>