<svg xmlns="http://www.w3.org/2000/svg" width="200" height="47" fill="none" viewBox="0 0 200 47"><path fill="#070707" d="M75.53 31.86h-3.238V14.133h6.65c.803-.012 1.6.153 2.332.482a5.6 5.6 0 0 1 1.784 1.282c.493.526.882 1.14 1.15 1.81a5.58 5.58 0 0 1 .204 3.613 5.4 5.4 0 0 1-.613 1.398 5.84 5.84 0 0 1-2.362 2.139 1037 1037 0 0 0 5.18 7.003h-2.544a2 2 0 0 1-.613-.113 3 3 0 0 1-.722-.351 5.4 5.4 0 0 1-.78-.613 6 6 0 0 1-.784-.942l-3.226-4.355H75.53zm3.512-9.637c.31-.002.615-.072.894-.204a2.3 2.3 0 0 0 .743-.534c.213-.225.382-.486.5-.772.123-.287.186-.596.186-.907 0-.318-.062-.632-.185-.924a2.6 2.6 0 0 0-.5-.772 2.4 2.4 0 0 0-.744-.532 2.1 2.1 0 0 0-.894-.204H75.53v4.837zm16.224-8.09h2.936l7.753 17.726h-2.019a2.33 2.33 0 0 1-1.262-.357 2.2 2.2 0 0 1-.855-.991l-1.054-2.4h-8.063l-1.039 2.4q-.129.302-.348.545a2.4 2.4 0 0 1-.507.425q-.287.183-.614.278a2.2 2.2 0 0 1-.663.1h-2.019zm-1.127 10.724h5.19l-2.316-5.368a3 3 0 0 1-.217-.681 5 5 0 0 1-.07-.47 4 4 0 0 1-.073.476q-.07.347-.205.675zm21.137 7.003h-3.257v-7.51a1.43 1.43 0 0 0-.172-.705 7 7 0 0 0-.458-.705l-6.508-8.807h2.487c.499-.01.993.1 1.441.321.418.216.774.535 1.034.928l3.5 4.738q.155.209.225.458.06.234.071.296.024-.147.07-.29a1.3 1.3 0 0 1 .241-.464l3.488-4.726a2.66 2.66 0 0 1 1.034-.946 3.16 3.16 0 0 1 1.441-.315h2.516l-6.525 8.82a7 7 0 0 0-.258.365 4 4 0 0 0-.204.327 1.44 1.44 0 0 0-.172.705zm25.059-8.51v6.81c-.401.37-.854.68-1.343.922a8 8 0 0 1-1.569.581 11 11 0 0 1-1.732.296q-.896.08-1.815.08a8.9 8.9 0 0 1-3.55-.712 9.3 9.3 0 0 1-2.9-1.937 9.1 9.1 0 0 1-1.954-2.868 9.04 9.04 0 0 1 0-7.046 9.1 9.1 0 0 1 1.962-2.877 9.3 9.3 0 0 1 2.9-1.936 9.28 9.28 0 0 1 7.029-.037 9.2 9.2 0 0 1 2.857 1.87l-.123.112a1.7 1.7 0 0 1-.504.35c-.192.08-.398.12-.605.116a1.4 1.4 0 0 1-.798-.246 8 8 0 0 0-2.003-.98 7.4 7.4 0 0 0-2.303-.351 7.6 7.6 0 0 0-2.012.265 7.3 7.3 0 0 0-1.803.758 8 8 0 0 0-1.534 1.172c-.46.453-.857.963-1.183 1.519a7.7 7.7 0 0 0-.765 1.795 7.2 7.2 0 0 0-.274 1.992 7 7 0 0 0 .28 1.993 7.55 7.55 0 0 0 2.005 3.313c.47.454.994.848 1.561 1.174a7.7 7.7 0 0 0 3.861 1.023 9.2 9.2 0 0 0 2.502-.338 8.8 8.8 0 0 0 2.291-1.02v-4.251h-1.582a1.47 1.47 0 0 1-1.089-.45 1.5 1.5 0 0 1-.404-1.044v-.05zm6.76 8.51h-1.567V14.133h6.291a5 5 0 0 1 1.969.388 5.1 5.1 0 0 1 1.596 1.065c.459.452.825.988 1.079 1.577.265.61.399 1.266.395 1.93a5.34 5.34 0 0 1-1.178 3.304 4.7 4.7 0 0 1-1.329 1.12 4.35 4.35 0 0 1-1.692.537l5.94 7.806h-.739c-.859 0-1.497-.315-1.904-.938l-5.228-6.868h-3.633zm0-16.182v6.829h4.724a3.48 3.48 0 0 0 2.451-.997c.316-.313.568-.682.745-1.087.185-.42.279-.873.276-1.33a3.2 3.2 0 0 0-.276-1.323 3.5 3.5 0 0 0-1.849-1.82 3.4 3.4 0 0 0-1.347-.272zM164.15 31.86h-1.432V14.133h1.432zm6.088 0V14.132h6.522a8.7 8.7 0 0 1 4.47 1.211 9.04 9.04 0 0 1 3.189 3.186 8.82 8.82 0 0 1 0 8.944 9 9 0 0 1-1.392 1.794 8.84 8.84 0 0 1-6.267 2.591zm6.522-1.547a7.1 7.1 0 0 0 2.862-.575 7.5 7.5 0 0 0 2.326-1.565 7.3 7.3 0 0 0 1.572-2.325 7.34 7.34 0 0 0 0-5.691 7.4 7.4 0 0 0-1.572-2.332 7.5 7.5 0 0 0-2.326-1.571 7.1 7.1 0 0 0-2.862-.577h-4.975v14.635zm20.103-13.839a9 9 0 0 1-.503-.37c-.3-.24-.65-.408-1.025-.493a3.7 3.7 0 0 0-.821-.074 3.92 3.92 0 0 0-2.502.89 3.1 3.1 0 0 0-.775.95 2.44 2.44 0 0 0-.286 1.149c-.011.387.049.772.182 1.136.131.31.344.581.615.784a4.7 4.7 0 0 0 1.13.63q.701.29 1.732.649.548.204 1.026.371c.314.115.616.233.894.351q.405.17.789.382.367.206.701.463c.559.415.987.982 1.23 1.632.242.679.362 1.394.353 2.114a4.64 4.64 0 0 1-.459 2.087 4.8 4.8 0 0 1-1.241 1.575 5.5 5.5 0 0 1-1.832.994 7.1 7.1 0 0 1-2.25.344q-2.321 0-3.912-1.37a6.4 6.4 0 0 1-1.228-1.495l.185-.111c.236-.145.506-.226.783-.235q.29 0 .571.08c.183.055.351.155.486.291q.427.406.924.723.37.23.782.37.346.114.708.142.34.024.701.036a5.3 5.3 0 0 0 1.495-.167 4 4 0 0 0 1.354-.612c.403-.284.739-.653.982-1.081.264-.48.396-1.02.381-1.567a3.8 3.8 0 0 0-.298-1.632 2.66 2.66 0 0 0-.821-.994 4.8 4.8 0 0 0-1.249-.636q-.72-.255-1.552-.576-1.056-.42-1.925-.777a6.1 6.1 0 0 1-1.482-.847 3.35 3.35 0 0 1-.958-1.204 4.3 4.3 0 0 1-.341-1.852c-.008-.654.15-1.3.459-1.877a4.9 4.9 0 0 1 1.186-1.44 5.5 5.5 0 0 1 1.641-.927 5.5 5.5 0 0 1 1.831-.326c.483-.006.963.063 1.424.204a5.7 5.7 0 0 1 2.123 1.228q.428.396.788.78l-.386.27a1.3 1.3 0 0 1-.34.18q-.23.074-.468.068a1.44 1.44 0 0 1-.802-.21M67.034 22.38v7.43a6.6 6.6 0 0 1-1.455 1.1c-.52.29-1.071.52-1.643.689a10 10 0 0 1-1.786.345q-.933.095-1.871.094a8.9 8.9 0 0 1-3.542-.703 9.4 9.4 0 0 1-2.901-1.934 9.1 9.1 0 0 1-1.958-2.872 8.75 8.75 0 0 1-.715-3.528 8.9 8.9 0 0 1 1.233-4.567 9.3 9.3 0 0 1 1.438-1.84 9.1 9.1 0 0 1 4.027-2.32 9 9 0 0 1 2.42-.32 8.5 8.5 0 0 1 1.951.222 9 9 0 0 1 1.85.644q.893.432 1.69 1.022.815.601 1.506 1.337l-.748.755a2.18 2.18 0 0 1-1.676.705 2.2 2.2 0 0 1-1.27-.395 6 6 0 0 0-1.536-.756 5.6 5.6 0 0 0-1.759-.272 5.7 5.7 0 0 0-2.26.458 5.9 5.9 0 0 0-3.141 3.072 5.5 5.5 0 0 0-.467 2.249 5.4 5.4 0 0 0 .485 2.283 6 6 0 0 0 2.229 2.566 6.06 6.06 0 0 0 3.269.956q.594-.014 1.181-.1.555-.083 1.095-.233a4.3 4.3 0 0 0 1.07-.458v-2.492l-1.027-.018a2.1 2.1 0 0 1-.893-.192 1.36 1.36 0 0 1-.629-.626 2.8 2.8 0 0 1-.236-1.304v-.991zm-23.16 3.513c1.457-11.387-6.593-21.799-17.98-23.255C14.505 1.18 4.093 9.23 2.637 20.618c-1.457 11.387 6.593 21.8 17.98 23.256 11.387 1.457 21.8-6.593 23.256-17.98"/><path fill="#262626" d="M24.026 22.929v1.992h4.364v3.333h-4.333v-.012c-.116 0-.236.012-.352.012a4.8 4.8 0 0 1-1.875-.376 4.86 4.86 0 0 1-2.127-1.744 4.813 4.813 0 0 1 7.041-6.413h8.51a12.138 12.138 0 1 0-11.551 15.856h12.054V22.924zm4.364 10.636h-4.02c-.151 0-.307.017-.472.02h-.35a10.144 10.144 0 0 1-8.791-14.945 10.142 10.142 0 0 1 17.314-.909h-4.675a6.808 6.808 0 1 0-3.695 12.528h4.688zm5.394.02h-3.4l.02-.013h-.02v-3.309h3.4zm0-5.326h-3.4v-3.333h3.4z"/><path fill="#fff" d="M23.438 22.3v1.993h4.365v3.332h-4.337v-.012c-.116 0-.236.012-.35.012a4.79 4.79 0 0 1-3.992-2.127 4.84 4.84 0 0 1-.445-4.564 4.815 4.815 0 0 1 6.309-2.572 4.8 4.8 0 0 1 1.182.71h8.51q-.169-.513-.372-1.003a12.136 12.136 0 0 0-23.297 4.17 12.14 12.14 0 0 0 12.1 12.709h12.055v-12.66zm4.365 10.637h-4.018c-.154 0-.307.016-.473.018h-.343a10.142 10.142 0 1 1 8.51-15.853h-4.67a6.807 6.807 0 1 0-3.698 12.514H27.8zm5.394.018h-3.399l.017-.011h-.017v-3.328h3.4zm0-5.325h-3.399v-3.333h3.4z"/><path fill="#999" d="M27.804 29.618h1.994v.948h-1.994zm-1.615-5.325h1.614v.947h1.993v-.947h1.463v-.003h-5.07z"/></svg>