<svg xmlns="http://www.w3.org/2000/svg" width="200" height="69" fill="none" viewBox="0 0 200 69"><clipPath id="a"><path d="M0 0h200v68.8H0z"/></clipPath><g clip-path="url(#a)"><g fill="#0ed7b5"><path d="M65.93 0H2.68C1.18 0 0 1.18 0 2.68v38.378c0 1.501 1.18 2.68 2.68 2.68h63.25c1.5 0 2.68-1.179 2.68-2.68V2.68c0-1.5-1.18-2.68-2.68-2.68m-2.68 38.378H5.36V5.36h57.89zm-3.43 13.079H8.79c-1.5 0-2.68 1.18-2.68 2.68s1.18 2.68 2.68 2.68h51.03c1.5 0 2.68-1.179 2.68-2.68 0-1.5-1.18-2.68-2.68-2.68m0 11.793H8.79c-1.5 0-2.68 1.179-2.68 2.68s1.18 2.68 2.68 2.68h51.03c1.5 0 2.68-1.18 2.68-2.68s-1.18-2.68-2.68-2.68"/><path fill-rule="evenodd" d="M34.305 9.648q-8.148 0-10.184 7.862 3.055-3.931 7.129-2.948c1.549.373 2.657 1.458 3.882 2.659 1.998 1.956 4.309 4.22 9.357 4.22q8.147 0 10.185-7.862-3.056 3.93-7.13 2.948c-1.55-.374-2.657-1.458-3.882-2.66-1.998-1.955-4.309-4.219-9.357-4.219M24.12 21.44q-8.148 0-10.185 7.862 3.055-3.93 7.13-2.948c1.549.374 2.656 1.458 3.882 2.66 1.997 1.955 4.309 4.219 9.357 4.219q8.147 0 10.184-7.862-3.055 3.93-7.129 2.948c-1.55-.374-2.657-1.458-3.883-2.659-1.997-1.956-4.308-4.22-9.356-4.22" clip-rule="evenodd"/></g><path fill="#2d3748" d="m90.24 9.51-.358 2.688h-4.608V27.2h-3.405V12.198h-4.762V9.51zm10.841 14.106q0 .794.23 1.178.257.357.794.563l-.691 2.176q-1.152-.103-1.895-.564-.716-.46-1.1-1.407a4.4 4.4 0 0 1-1.741 1.535q-1.024.487-2.304.487-2.022 0-3.2-1.152t-1.178-3.02q0-2.203 1.587-3.354 1.613-1.179 4.583-1.178h1.69v-.768q0-1.305-.615-1.818-.59-.537-1.92-.537-1.485 0-3.584.717l-.768-2.228q2.535-.972 4.915-.972 5.197 0 5.197 4.659zm-5.837 1.587q1.665 0 2.611-1.664V20.8H96.5q-3.175 0-3.175 2.356 0 .973.487 1.51.486.538 1.433.538m13.079-11.545V27.2h-3.277V13.657zm-1.664-6.861q.922 0 1.485.589.59.562.589 1.408 0 .845-.589 1.407-.563.564-1.485.564-.896 0-1.485-.564-.563-.562-.563-1.407 0-.846.563-1.408.59-.59 1.485-.59m8.813 20.787q-1.563 0-2.458-.896-.87-.922-.87-2.586V8.23l3.276-.358V24q0 .947.768.947.384 0 .768-.128l.692 2.304a5.2 5.2 0 0 1-2.176.46m20.887-13.926L133.415 27.2h-4.096l-2.048-10.624-2.099 10.624h-4.019l-2.996-13.543h3.277l1.895 11.136 2.355-11.136h3.353l2.151 11.136 2.022-11.136zm5.539 0V27.2h-3.277V13.658zm-1.664-6.861q.923 0 1.485.589.59.562.589 1.408 0 .845-.589 1.407-.562.564-1.485.564-.895 0-1.485-.564-.563-.562-.563-1.407 0-.846.563-1.408.59-.59 1.485-.59m12.832 6.477q1.817 0 2.816 1.1 1.024 1.076 1.024 3.021V27.2h-3.277v-9.293q0-1.203-.435-1.69-.41-.486-1.229-.486-.844 0-1.536.538-.666.512-1.306 1.51v9.42h-3.276v-13.54h2.841l.256 1.766q1.663-2.15 4.122-2.15m19.047-5.044V27.2h-2.893l-.23-1.715a4.7 4.7 0 0 1-1.638 1.536q-.973.563-2.228.563-2.483 0-3.814-1.92t-1.331-5.222q0-2.074.665-3.687.666-1.638 1.895-2.56 1.254-.921 2.893-.921 1.946 0 3.404 1.459V7.872zm-6.067 16.87q.87 0 1.536-.409.666-.435 1.254-1.331v-6.195q-.588-.718-1.203-1.075-.588-.36-1.382-.359-1.306 0-2.074 1.178-.742 1.152-.742 3.507 0 2.509.665 3.61.666 1.074 1.946 1.075M90.24 40.445l-.358 2.687h-4.608v15.002h-3.405V43.132h-4.762v-2.688zm11.817 10.598q0 .255-.077 1.331h-8.5q.154 1.971 1.024 2.816t2.305.845q.895 0 1.69-.282.792-.307 1.689-.921l1.357 1.868q-2.253 1.818-5.018 1.818-3.097 0-4.787-1.894-1.665-1.894-1.664-5.172 0-2.074.716-3.711.718-1.665 2.074-2.586 1.357-.948 3.226-.947 2.841 0 4.403 1.817 1.562 1.793 1.562 5.018m-3.252-.947q0-3.56-2.637-3.559-1.203 0-1.894.896-.665.871-.794 2.816h5.325zm20.553-5.888q1.639 0 2.611 1.126.973 1.1.973 2.995v9.805h-3.277V48.84q0-2.175-1.485-2.176-.794 0-1.382.512-.564.486-1.178 1.536v9.421h-3.276V48.84q0-2.175-1.485-2.176-.82 0-1.408.512-.564.486-1.178 1.536v9.421h-3.277V44.591h2.842l.256 1.766q1.536-2.15 3.917-2.15 1.178 0 2.022.614.87.589 1.255 1.664.819-1.1 1.792-1.69.998-.588 2.278-.588m14.403 0q2.56 0 3.788 1.868 1.23 1.87 1.229 5.248 0 2.1-.64 3.738-.614 1.613-1.843 2.534-1.203.922-2.867.922-2.151 0-3.405-1.485v6.323l-3.277.359V44.59h2.867l.18 1.664q.794-1.024 1.817-1.536a4.75 4.75 0 0 1 2.151-.512m-1.255 11.801q2.842 0 2.842-4.659 0-2.483-.64-3.584t-1.92-1.1q-.819 0-1.536.511-.717.487-1.229 1.332V54.6q.947 1.408 2.483 1.408m12.69 2.509q-1.562 0-2.457-.896-.87-.921-.871-2.586V39.164l3.277-.359v16.128q0 .947.768.947.384 0 .768-.128l.691 2.304a5.2 5.2 0 0 1-2.176.461m14.235-3.968q0 .794.23 1.178.257.358.794.563l-.691 2.176q-1.152-.102-1.895-.563-.716-.462-1.1-1.408a4.4 4.4 0 0 1-1.741 1.536q-1.024.486-2.304.486-2.022 0-3.2-1.152c-1.178-1.152-1.178-1.775-1.178-3.02q0-2.202 1.587-3.354 1.614-1.178 4.583-1.178h1.689v-.768q0-1.305-.614-1.817-.588-.538-1.92-.538-1.484 0-3.584.717l-.768-2.227q2.535-.974 4.915-.973 5.197 0 5.197 4.659zm-5.837 1.587q1.665 0 2.611-1.664v-2.739h-1.356q-3.175 0-3.175 2.355 0 .973.487 1.51.486.538 1.433.538m17.559 1.357a5.2 5.2 0 0 1-1.613.768q-.87.256-1.792.256-1.996-.025-3.046-1.126-1.024-1.126-1.024-3.303v-7.142h-2.125V44.59h2.125v-2.995l3.277-.384v3.379h3.149l-.333 2.355h-2.816v7.065q0 .999.333 1.434.358.435 1.1.435c.742 0 1.033-.162 1.613-.486zm12.529-6.451q0 .255-.077 1.331h-8.499q.154 1.971 1.024 2.816c.87.845 1.348.845 2.304.845q.895 0 1.689-.282.794-.308 1.69-.921l1.357 1.868q-2.253 1.818-5.018 1.818-3.098 0-4.787-1.894-1.664-1.895-1.664-5.172 0-2.074.717-3.711.717-1.665 2.073-2.586 1.357-.947 3.226-.947 2.841 0 4.403 1.817 1.562 1.793 1.562 5.018m-3.251-.947q0-3.56-2.637-3.559-1.203 0-1.895.896-.665.871-.793 2.816h5.325zm10.466-5.888q2.739 0 4.813 1.613l-1.28 1.92q-1.742-1.101-3.405-1.101-.973 0-1.511.384-.537.358-.537.973 0 .46.23.768.231.306.819.588.615.255 1.792.589 2.202.589 3.252 1.562 1.075.973 1.075 2.713 0 2.023-1.639 3.175-1.638 1.125-4.07 1.126-1.664 0-3.046-.512a7.4 7.4 0 0 1-2.356-1.408l1.639-1.843q1.766 1.33 3.686 1.331 1.1 0 1.741-.435.666-.435.666-1.203 0-.59-.256-.922-.23-.359-.871-.614-.614-.282-1.945-.666-2.074-.563-3.047-1.562-.973-1.023-.973-2.534a3.4 3.4 0 0 1 .64-2.022q.666-.897 1.844-1.408 1.203-.513 2.739-.512"/></g></svg>