<svg xmlns="http://www.w3.org/2000/svg" width="71" height="82" fill="none" viewBox="0 0 71 82"><g fill="#3056d3"><circle cx="1.29337" cy="80.7066" r="1.29337" transform="rotate(-90 1.293 80.707)"/><circle cx="12.6746" cy="80.7066" r="1.29337" transform="rotate(-90 12.675 80.707)"/><circle cx="24.0573" cy="80.7066" r="1.29337" transform="rotate(-90 24.057 80.707)"/><circle cx="35.4377" cy="80.7066" r="1.29337" transform="rotate(-90 35.438 80.707)"/><circle cx="46.8197" cy="80.7066" r="1.29337" transform="rotate(-90 46.82 80.707)"/><circle cx="68.8072" cy="80.7066" r="1.29337" transform="rotate(-90 68.807 80.707)"/><circle cx="57.9441" cy="80.7066" r="1.29337" transform="rotate(-90 57.944 80.707)"/><circle cx="1.29337" cy="69.3248" r="1.29337" transform="rotate(-90 1.293 69.325)"/><circle cx="12.6746" cy="69.3248" r="1.29337" transform="rotate(-90 12.675 69.325)"/><circle cx="24.0573" cy="69.3248" r="1.29337" transform="rotate(-90 24.057 69.325)"/><circle cx="35.4377" cy="69.3248" r="1.29337" transform="rotate(-90 35.438 69.325)"/><circle cx="46.8197" cy="69.3253" r="1.29337" transform="rotate(-90 46.82 69.325)"/><circle cx="68.8072" cy="69.3253" r="1.29337" transform="rotate(-90 68.807 69.325)"/><circle cx="57.9434" cy="69.3253" r="1.29337" transform="rotate(-90 57.943 69.325)"/><circle cx="1.29337" cy="57.9434" r="1.29337" transform="rotate(-90 1.293 57.943)"/><circle cx="1.29337" cy="24.0567" r="1.29337" transform="rotate(-90 1.293 24.057)"/><circle cx="12.6746" cy="57.9434" r="1.29337" transform="rotate(-90 12.675 57.943)"/><circle cx="12.6746" cy="24.0567" r="1.29337" transform="rotate(-90 12.675 24.057)"/><circle cx="24.0573" cy="57.9434" r="1.29337" transform="rotate(-90 24.057 57.943)"/><circle cx="24.0573" cy="24.0567" r="1.29337" transform="rotate(-90 24.057 24.057)"/><circle cx="35.4377" cy="57.9434" r="1.29337" transform="rotate(-90 35.438 57.943)"/><circle cx="35.4377" cy="24.0567" r="1.29337" transform="rotate(-90 35.438 24.057)"/><circle cx="46.8197" cy="57.943" r="1.29337" transform="rotate(-90 46.82 57.943)"/><circle cx="46.8197" cy="24.0567" r="1.29337" transform="rotate(-90 46.82 24.057)"/><circle cx="68.8072" cy="57.943" r="1.29337" transform="rotate(-90 68.807 57.943)"/><circle cx="68.8072" cy="24.0567" r="1.29337" transform="rotate(-90 68.807 24.057)"/><circle cx="57.9434" cy="57.943" r="1.29337" transform="rotate(-90 57.943 57.943)"/><circle cx="57.9441" cy="24.0567" r="1.29337" transform="rotate(-90 57.944 24.057)"/><circle cx="1.29337" cy="46.5616" r="1.29337" transform="rotate(-90 1.293 46.562)"/><circle cx="1.29337" cy="12.6751" r="1.29337" transform="rotate(-90 1.293 12.675)"/><circle cx="12.6746" cy="46.5616" r="1.29337" transform="rotate(-90 12.675 46.562)"/><circle cx="12.6746" cy="12.6751" r="1.29337" transform="matrix(0 -1 1 0 0 25.35)"/><circle cx="24.0573" cy="46.5616" r="1.29337" transform="rotate(-90 24.057 46.562)"/><circle cx="24.0573" cy="12.6751" r="1.29337" transform="rotate(-90 24.057 12.675)"/><circle cx="35.4377" cy="46.5616" r="1.29337" transform="rotate(-90 35.438 46.562)"/><circle cx="35.4377" cy="12.6751" r="1.29337" transform="rotate(-90 35.438 12.675)"/><circle cx="46.8197" cy="46.5616" r="1.29337" transform="rotate(-90 46.82 46.562)"/><circle cx="46.8197" cy="12.6751" r="1.29337" transform="rotate(-90 46.82 12.675)"/><circle cx="68.8072" cy="46.5616" r="1.29337" transform="rotate(-90 68.807 46.562)"/><circle cx="68.8072" cy="12.6751" r="1.29337" transform="rotate(-90 68.807 12.675)"/><circle cx="57.9434" cy="46.5616" r="1.29337" transform="rotate(-90 57.943 46.562)"/><circle cx="57.9441" cy="12.6751" r="1.29337" transform="rotate(-90 57.944 12.675)"/><circle cx="1.29337" cy="35.1798" r="1.29337" transform="rotate(-90 1.293 35.18)"/><circle cx="1.29337" cy="1.2933" r="1.29337" transform="rotate(-90 1.293 1.293)"/><circle cx="12.6746" cy="35.1798" r="1.29337" transform="rotate(-90 12.675 35.18)"/><circle cx="12.6746" cy="1.2933" r="1.29337" transform="rotate(-90 12.675 1.293)"/><circle cx="24.0573" cy="35.1798" r="1.29337" transform="rotate(-90 24.057 35.18)"/><circle cx="24.0573" cy="1.2933" r="1.29337" transform="rotate(-90 24.057 1.293)"/><circle cx="35.4377" cy="35.1798" r="1.29337" transform="rotate(-90 35.438 35.18)"/><circle cx="35.4377" cy="1.2933" r="1.29337" transform="rotate(-90 35.438 1.293)"/><circle cx="46.8197" cy="35.18" r="1.29337" transform="rotate(-90 46.82 35.18)"/><circle cx="46.8197" cy="1.29354" r="1.29337" transform="rotate(-90 46.82 1.294)"/><circle cx="68.8072" cy="35.18" r="1.29337" transform="rotate(-90 68.807 35.18)"/><circle cx="68.8072" cy="1.29354" r="1.29337" transform="rotate(-90 68.807 1.294)"/><circle cx="57.9441" cy="35.18" r="1.29337" transform="rotate(-90 57.944 35.18)"/><circle cx="57.9441" cy="1.29354" r="1.29337" transform="rotate(-90 57.944 1.294)"/></g></svg>