<svg xmlns="http://www.w3.org/2000/svg" width="46" height="46" fill="none" viewBox="0 0 46 46"><g fill="#fff" fill-opacity=".44"><circle cx="1.39737" cy="44.6026" r="1.39737" transform="rotate(-90 1.397 44.603)"/><circle cx="1.39737" cy="7.99124" r="1.39737" transform="rotate(-90 1.397 7.991)"/><circle cx="13.6943" cy="44.6026" r="1.39737" transform="rotate(-90 13.694 44.603)"/><circle cx="13.6943" cy="7.99124" r="1.39737" transform="rotate(-90 13.694 7.991)"/><circle cx="25.9911" cy="44.6026" r="1.39737" transform="rotate(-90 25.991 44.603)"/><circle cx="25.9911" cy="7.99124" r="1.39737" transform="rotate(-90 25.991 7.991)"/><circle cx="38.288" cy="44.6026" r="1.39737" transform="rotate(-90 38.288 44.603)"/><circle cx="38.288" cy="7.99124" r="1.39737" transform="rotate(-90 38.288 7.991)"/><circle cx="1.39737" cy="32.3058" r="1.39737" transform="rotate(-90 1.397 32.306)"/><circle cx="13.6943" cy="32.3058" r="1.39737" transform="rotate(-90 13.694 32.306)"/><circle cx="25.9911" cy="32.3058" r="1.39737" transform="rotate(-90 25.991 32.306)"/><circle cx="38.288" cy="32.3058" r="1.39737" transform="rotate(-90 38.288 32.306)"/><circle cx="1.39737" cy="20.0087" r="1.39737" transform="rotate(-90 1.397 20.009)"/><circle cx="13.6943" cy="20.0087" r="1.39737" transform="rotate(-90 13.694 20.009)"/><circle cx="25.9911" cy="20.0087" r="1.39737" transform="rotate(-90 25.991 20.009)"/><circle cx="38.288" cy="20.0087" r="1.39737" transform="rotate(-90 38.288 20.009)"/></g></svg>