<svg xmlns="http://www.w3.org/2000/svg" width="200" height="26" fill="none" viewBox="0 0 200 26"><linearGradient id="a" x1="26.2047" x2="49.4103" y1="17.819" y2="17.819" gradientUnits="userSpaceOnUse"><stop offset="0" stop-color="#003fff"/><stop offset=".6883" stop-color="#690aff"/></linearGradient><linearGradient id="b" x1="3" x2="26.223" y1="8.52236" y2="8.52236" gradientUnits="userSpaceOnUse"><stop offset=".2862" stop-color="#e843a1"/><stop offset="1" stop-color="#003fff"/></linearGradient><linearGradient id="c" x1="3" x2="49.4284" y1="13.1634" y2="13.1634" gradientUnits="userSpaceOnUse"><stop offset=".16" stop-color="#e843a1"/><stop offset=".84" stop-color="#690aff"/></linearGradient><g stroke-miterlimit="10" stroke-width="6"><path stroke="url(#a)" d="M26.205 13.164c3.423 4.64 6.904 9.282 13.75 9.282 5.22 0 9.455-4.177 9.455-9.283"/><path stroke="url(#b)" d="M3 13.163c0-5.105 4.235-9.282 9.456-9.282 6.846 0 10.326 4.641 13.75 9.282"/><path stroke="url(#c)" d="M49.41 13.163c0-5.105-4.235-9.282-9.456-9.282-6.845 0-10.326 4.641-13.749 9.282s-6.903 9.282-13.749 9.282C7.235 22.446 3 18.269 3 13.164"/></g><path fill="#000" d="M64.975 25.293V.981h3.186v21.141h9.958v3.171zM81.318 6.055V2.672h3.186v3.383zm0 19.238V7.746h3.186v17.547zM124.37 6.055V2.672h3.187v3.383zm0 19.238V7.746h3.187v17.547zm-21.98-11.152a12.4 12.4 0 0 0-.497-2.167c-.249-.74-.648-1.427-1.096-2.061-.498-.634-1.095-1.163-1.892-1.533s-1.743-.58-2.888-.58c-1.493 0-2.738.317-3.784 1.004-.497.317-.896.687-1.294 1.11V7.799h-3.187v17.547h3.187v-8.72h.05c0-1.058.1-1.903.348-2.643q.3-1.11.896-1.745a4 4 0 0 1 1.345-.95 4.2 4.2 0 0 1 1.643-.318c.896 0 1.593.211 2.14.581.549.37.946.899 1.295 1.48.299.634.498 1.269.597 2.009.1.74.15 1.427.15 2.114v8.192h3.236v-9.355c-.099-.528-.149-1.163-.249-1.85m80.47 0a12.3 12.3 0 0 0-.498-2.167c-.249-.74-.647-1.427-1.095-2.061-.498-.634-1.095-1.163-1.892-1.533s-1.742-.581-2.888-.581c-1.494 0-2.738.317-3.784 1.004-.498.317-.896.687-1.295 1.11V7.799h-3.187v17.547h3.187v-8.72h.051c0-1.058.099-1.903.348-2.643q.298-1.11.896-1.745.598-.634 1.344-.95a4.2 4.2 0 0 1 1.643-.318c.897 0 1.594.211 2.141.581.548.37.947.899 1.245 1.48.299.634.498 1.269.597 2.009.1.74.15 1.427.15 2.114v8.192h3.236v-9.355c-.049-.528-.099-1.163-.199-1.85m-62.981 3.277h1.593c.099-2.008-.1-3.7-.697-5.18-.598-1.427-1.494-2.59-2.639-3.33-1.195-.792-2.639-1.162-4.282-1.162-1.593 0-3.038.37-4.232 1.11s-2.141 1.744-2.838 3.118c-.697 1.321-.996 2.907-.996 4.704 0 1.691.349 3.224 1.046 4.546.697 1.32 1.642 2.325 2.888 3.012q1.866 1.11 4.331 1.11c1.593 0 3.038-.423 4.382-1.216 1.294-.792 2.29-1.955 2.937-3.435l-3.136-1.004c-.399.845-.997 1.533-1.694 1.955-.746.476-1.593.687-2.589.687-1.543 0-2.688-.475-3.485-1.48-.647-.845-1.046-1.955-1.145-3.33h10.556zm-9.56-5.285c.797-1.004 1.992-1.533 3.585-1.533 1.444 0 2.539.476 3.236 1.374.498.634.847 1.586.996 2.749h-8.913a6.34 6.34 0 0 1 1.096-2.59m28.105 13.16c-1.693 0-3.137-.37-4.332-1.162-1.195-.74-2.092-1.797-2.738-3.119-.648-1.321-.946-2.854-.946-4.492 0-1.692.348-3.224.996-4.546.647-1.321 1.543-2.378 2.738-3.118s2.638-1.11 4.282-1.11c1.792 0 3.336.476 4.631 1.374 1.294.899 2.14 2.167 2.539 3.7l-3.187.898c-.298-.95-.847-1.638-1.544-2.167s-1.542-.792-2.489-.792c-1.045 0-1.892.264-2.589.74q-1.046.713-1.493 2.06c-.349.846-.499 1.85-.499 2.96 0 1.692.399 3.119 1.196 4.176q1.12 1.586 3.435 1.586c1.045 0 1.842-.265 2.489-.74.647-.476 1.145-1.163 1.445-2.062l3.236.793c-.548 1.639-1.444 2.854-2.689 3.753-1.195.846-2.739 1.268-4.481 1.268m18.484 0c-1.644 0-3.087-.37-4.282-1.11s-2.141-1.797-2.788-3.118c-.648-1.321-.997-2.854-.997-4.545 0-1.744.349-3.277.997-4.599.697-1.321 1.593-2.325 2.837-3.065 1.195-.74 2.64-1.11 4.233-1.11 1.643 0 3.087.37 4.281 1.11 1.196.74 2.142 1.797 2.839 3.118.647 1.321.995 2.854.995 4.546 0 1.744-.348 3.277-.995 4.598s-1.593 2.326-2.839 3.118c-1.244.687-2.638 1.057-4.281 1.057m0-3.012c1.593 0 2.739-.529 3.535-1.586s1.195-2.431 1.195-4.175-.398-3.119-1.195-4.176c-.796-1.057-1.942-1.585-3.535-1.585-1.096 0-1.942.264-2.639.74-.697.475-1.195 1.162-1.544 2.008-.348.846-.498 1.85-.498 2.96 0 1.744.399 3.118 1.195 4.175.748 1.11 1.942 1.639 3.486 1.639m36.47 3.012c-1.992 0-3.635-.422-4.93-1.321-1.244-.898-2.041-2.167-2.34-3.753l3.286-.528c.199.846.697 1.533 1.394 2.061.748.476 1.644.74 2.739.74.996 0 1.792-.211 2.34-.634s.846-.952.846-1.692c0-.422-.099-.74-.298-1.004s-.598-.528-1.245-.74-1.593-.528-2.888-.898c-1.394-.37-2.539-.793-3.386-1.216-.846-.423-1.443-.951-1.792-1.48a3.95 3.95 0 0 1-.548-2.06c0-1.005.249-1.904.797-2.644q.821-1.109 2.24-1.744c.946-.423 2.091-.634 3.386-.634 1.245 0 2.39.211 3.386.581.996.423 1.793.952 2.39 1.692s.996 1.585 1.095 2.59l-3.285.58c-.101-.792-.499-1.426-1.096-1.902-.647-.475-1.444-.74-2.44-.74-.946-.053-1.742.106-2.34.476s-.896.846-.896 1.48c0 .37.099.687.349.951.248.264.697.529 1.343.74a39 39 0 0 0 2.938.846c1.394.37 2.49.74 3.287 1.215.796.423 1.394.952 1.742 1.533s.548 1.321.548 2.167c0 1.639-.598 2.96-1.793 3.858-1.095 1.005-2.738 1.48-4.829 1.48"/></svg>