<svg xmlns="http://www.w3.org/2000/svg" width="200" height="52" fill="none" viewBox="0 0 200 52"><linearGradient id="a" x1="38.8079" x2="8.58038" y1="46.5383" y2="-5.02959" gradientUnits="userSpaceOnUse"><stop offset="0" stop-color="#2535c5"/><stop offset=".169697" stop-color="#36409b"/><stop offset=".575758" stop-color="#475bc6"/><stop offset="1" stop-color="#7075e4"/></linearGradient><linearGradient id="b" x1="60.5417" x2="60.5417" y1="0" y2="51.0085" gradientUnits="userSpaceOnUse"><stop offset="0" stop-color="#375ad8"/><stop offset=".472727" stop-color="#3c56dd"/><stop offset="1" stop-color="#2a1a8f"/></linearGradient><linearGradient id="c" x1="30.6663" x2="30.6663" y1="0" y2="51.518" gradientUnits="userSpaceOnUse"><stop offset="0" stop-color="#233593"/><stop offset=".472727" stop-color="#4957d7"/><stop offset=".890909" stop-color="#5465ff"/><stop offset="1" stop-color="#6a67ff"/></linearGradient><linearGradient id="d" x1="4.28592" x2="11.4261" y1="8.72853" y2="-.208004" gradientUnits="userSpaceOnUse"><stop offset="0" stop-color="#3a4a9c"/><stop offset=".327273" stop-color="#475bc6"/><stop offset="1" stop-color="#7090e4"/></linearGradient><linearGradient id="e" x1="60.8992" x2="53.9964" y1="42.9276" y2="51.1328" gradientUnits="userSpaceOnUse"><stop offset="0" stop-color="#2d3792"/><stop offset=".193939" stop-color="#3f2bb8"/><stop offset="1" stop-color="#3c38ff"/></linearGradient><path fill="#252f3f" d="m184.095 31.755 15.808-19.064h-7.76l-14.174 17.09v-.11l-6.422 7.787-1.398 1.694-.12.204-2.408 2.903q-.669.61-1.416 1.124a13 13 0 0 1-7.382 2.289v.099a13 13 0 0 1-5.126-1.053 13.33 13.33 0 0 1-5.814-4.862 13.5 13.5 0 0 1-2.255-7.497c0-1.861.369-3.618 1.036-5.22a13.43 13.43 0 0 1 4.791-5.905 13 13 0 0 1 7.384-2.288c2.902.001 5.562.94 7.744 2.543l3.482-4.88a18.88 18.88 0 0 0-11.226-3.692c-2.636 0-5.162.545-7.455 1.53a19.3 19.3 0 0 0-8.423 7.04 19.57 19.57 0 0 0-3.27 10.872c0 .066.005.134.005.2h-.104a13.45 13.45 0 0 1-5.825 11.123 13 13 0 0 1-7.384 2.29 13 13 0 0 1-5.142-1.054 13.3 13.3 0 0 1-5.816-4.862 13.5 13.5 0 0 1-1.584-3.271q-.369-.184-.792-.412c-1.353-.736-3.049-1.81-4.439-3.218a27 27 0 0 1-1.574-1.743q.048.566.049 1.148c0 1.859-.368 3.616-1.037 5.219a13.43 13.43 0 0 1-4.789 5.904 13 13 0 0 1-7.384 2.289 13 13 0 0 1-5.142-1.054 13.3 13.3 0 0 1-5.814-4.862 13.47 13.47 0 0 1-2.255-7.496c0-1.86.37-3.618 1.037-5.221 1-2.403 2.68-4.457 4.79-5.904a13 13 0 0 1 7.384-2.289c1.832 0 3.562.376 5.141 1.053a13.3 13.3 0 0 1 5.815 4.863l.094.147.009-.003v.004l.009.022.005.014c.055.085.106.175.159.26a19 19 0 0 0 .951 1.867c.034.084.072.165.105.25a23 23 0 0 0 1.498 2.178c.034.044.064.087.098.13a21 21 0 0 0 1.9 2.158l.017.016q.17.17.349.337l.14.129c.756.697 1.603 1.37 2.564 1.976a15.36 15.36 0 0 0 8.045 2.407h.002l.402.003c2.544 0 4.826-.403 6.829-1.122a17 17 0 0 0 4.024-2.078 17.8 17.8 0 0 0 4.249-4.255 21.4 21.4 0 0 0 2.44-4.54c.436-1.106.66-2.205.66-3.257a7 7 0 0 0-.211-1.735 6.9 6.9 0 0 0-1.14-2.41 7.7 7.7 0 0 0-2.144-1.96 7 7 0 0 0-1.24-.619l-.01.034a18.9 18.9 0 0 0-8.252-1.896 18.9 18.9 0 0 0-7.455 1.528 19.2 19.2 0 0 0-5.972 4.055V.032h-5.936v16.262q.544.528 1.131 1.152c1.501 1.603 2.474 3.152 3.328 4.577.855 1.428 1.594 2.723 2.632 3.904q.237.272.499.536a13.4 13.4 0 0 1 4.388-5.028 13 13 0 0 1 7.385-2.289c2.408.001 4.644.648 6.586 1.784l.023-.042c.127.1.243.218.308.318a.7.7 0 0 1 .101.202.9.9 0 0 1 .042.297c0 .193-.038.513-.236 1.019a15.5 15.5 0 0 1-1.497 2.893 12.6 12.6 0 0 1-1.659 2.018 10.9 10.9 0 0 1-3.532 2.327c-1.432.587-3.167.966-5.341.967q-.153 0-.305-.002h-.001a9.6 9.6 0 0 1-2.458-.355c-1.31-.37-2.448-.999-3.448-1.772-.349-.27-.679-.56-.991-.859l.002-.008q-.224-.21-.434-.424a16.4 16.4 0 0 1-1.983-2.551c-.376-.596-.762-1.092-.937-1.446-.087-.177-.261-.452-.261-.452-.888-1.487-1.811-2.998-3.286-4.575q-.03-.029-.056-.059v.001a19 19 0 0 0-2.438-1.987 18.87 18.87 0 0 0-10.707-3.321c-2.636 0-5.161.543-7.455 1.528a19.3 19.3 0 0 0-8.42 7.04 19.6 19.6 0 0 0-3.272 10.873 19.6 19.6 0 0 0 1.506 7.567 19.43 19.43 0 0 0 6.934 8.55A18.87 18.87 0 0 0 93.875 52c2.635 0 5.162-.544 7.454-1.53a19.3 19.3 0 0 0 8.801-7.633 19.4 19.4 0 0 0 5.543 5.84A18.9 18.9 0 0 0 126.383 52c2.634 0 5.16-.544 7.453-1.53a19.3 19.3 0 0 0 8.836-7.695 19.4 19.4 0 0 0 5.46 5.702 18.9 18.9 0 0 0 10.707 3.322 18.8 18.8 0 0 0 7.453-1.53 19.1 19.1 0 0 0 5.74-3.823v5.428h5.937V39.139l2.228-2.684 12.19 15.419H200zM177.969.032h-5.937v32.234c0 .874-.084 1.725-.243 2.55l6.18-7.493z"/><path fill="url(#a)" d="M34.019 13.86v15.797c0 7.36-4.45 11.805-11.196 11.805-6.747 0-11.483-4.446-11.483-11.805V0H0v29.657c0 13.48 8.899 21.86 22.823 21.86 13.851 0 22.536-8.38 22.536-21.86V0h-.2c-5.98 1.95-10.44 7.33-11.14 13.86"/><path fill="url(#b)" d="M55.066 0h-.194v51.008h11.34V13.87C66.105 8.202 61.05 1.95 55.066 0"/><path fill="url(#c)" d="M34.019 13.86v15.827c.002.157.01.313.01.471 0 10.64-7.892 19.402-18.055 20.596 2.115.5 4.403.764 6.849.764 13.851 0 22.536-8.38 22.536-21.86V0h-.2c-5.98 1.95-10.441 7.33-11.14 13.86"/><path fill="url(#d)" d="M11.34 13.886V0H0v.002c6.029 1.953 10.547 7.332 11.34 13.884"/><path fill="url(#e)" d="M54.872 35.893v15.115h11.201c-6.246-2.238-10.802-8.11-11.201-15.115"/></svg>