<svg xmlns="http://www.w3.org/2000/svg" width="40" height="40" fill="none" viewBox="0 0 40 40"><path fill="#fff" d="M20 40c11.046 0 20-8.954 20-20S31.046 0 20 0 0 8.954 0 20s8.954 20 20 20"/><path fill="#3056d3" fill-rule="evenodd" d="M11.231 8C9.52 8 8.253 9.498 8.31 11.123c.055 1.561-.016 3.583-.525 5.232-.51 1.653-1.374 2.7-2.784 2.835v1.518c1.41.135 2.273 1.182 2.784 2.836.51 1.649.58 3.67.525 5.231-.056 1.625 1.21 3.123 2.922 3.123h17.54c1.712 0 2.978-1.498 2.922-3.123-.055-1.56.016-3.582.525-5.231.51-1.654 1.372-2.701 2.782-2.836V19.19c-1.41-.135-2.271-1.182-2.782-2.835-.51-1.649-.58-3.671-.525-5.232C31.749 9.498 30.483 8 28.77 8zM25.34 22.71c0 2.238-1.669 3.595-4.438 3.595h-4.715a.51.51 0 0 1-.508-.508V14.102a.51.51 0 0 1 .508-.509h4.688c2.31 0 3.825 1.251 3.825 3.172 0 1.348-1.02 2.554-2.319 2.766v.07c1.768.194 2.959 1.419 2.959 3.11m-4.952-7.505H17.7v3.797h2.264c1.75 0 2.715-.705 2.715-1.964 0-1.181-.83-1.833-2.291-1.833M17.7 20.51v4.184h2.787c1.822 0 2.787-.731 2.787-2.106s-.992-2.079-2.905-2.079z" clip-rule="evenodd"/></svg>