<svg xmlns="http://www.w3.org/2000/svg" width="127" height="28" fill="none" viewBox="0 0 127 28"><clipPath id="a"><path d="M0 .47h127v27H0z"/></clipPath><g clip-path="url(#a)"><path fill="#fff" d="M40.791 13.843v4.836a4.3 4.3 0 0 1-.941.715 5.2 5.2 0 0 1-1.065.448q-.567.167-1.156.225a12 12 0 0 1-1.212.061 5.75 5.75 0 0 1-2.293-.457 6.1 6.1 0 0 1-1.878-1.259 5.9 5.9 0 0 1-1.268-1.869 5.7 5.7 0 0 1-.463-2.296 5.8 5.8 0 0 1 1.73-4.168 5.9 5.9 0 0 1 4.174-1.72c.425 0 .85.049 1.264.146q.621.144 1.197.419.578.281 1.095.665.526.39.975.87l-.485.49a1.41 1.41 0 0 1-1.085.46 1.4 1.4 0 0 1-.822-.257 3.9 3.9 0 0 0-.995-.492 3.6 3.6 0 0 0-1.139-.177 3.7 3.7 0 0 0-1.463.298 3.83 3.83 0 0 0-2.034 2c-.202.46-.305.959-.302 1.462-.004.513.103 1.02.314 1.486a3.91 3.91 0 0 0 3.56 2.292q.384-.01.764-.065.36-.053.71-.152.366-.101.693-.297v-1.622L38 15.873c-.2 0-.398-.042-.58-.125a.9.9 0 0 1-.406-.407 1.84 1.84 0 0 1-.153-.849v-.645zm5.58 6.177h-2.11V8.48h4.333a3.6 3.6 0 0 1 2.682 1.148c.321.343.575.743.749 1.179a3.63 3.63 0 0 1-.266 3.262 3.8 3.8 0 0 1-1.54 1.392 677 677 0 0 0 3.376 4.56h-1.658a1.3 1.3 0 0 1-.399-.074 2 2 0 0 1-.47-.229 3.5 3.5 0 0 1-.509-.399 4 4 0 0 1-.51-.613l-2.103-2.835h-1.575zm2.288-6.273a1.53 1.53 0 0 0 1.067-.48q.21-.222.326-.503c.08-.187.121-.388.121-.59 0-.207-.04-.412-.12-.602a1.7 1.7 0 0 0-.327-.503 1.5 1.5 0 0 0-.484-.346 1.4 1.4 0 0 0-.583-.133h-2.288v3.149zM59.16 8.48h1.91l5.041 11.54h-1.313a1.5 1.5 0 0 1-.82-.233 1.44 1.44 0 0 1-.557-.645l-.685-1.562h-5.242l-.676 1.562q-.084.196-.226.355-.146.161-.33.277-.187.12-.4.18-.21.066-.43.066h-1.313zm-.732 6.981h3.374l-1.506-3.495a2 2 0 0 1-.14-.443 3 3 0 0 1-.046-.305q-.014.156-.048.31-.045.226-.133.438zm13.741 4.559h-2.12v-4.888a.93.93 0 0 0-.112-.46 5 5 0 0 0-.298-.458L65.402 8.48h1.619a2 2 0 0 1 .938.21c.272.14.504.348.673.603l2.278 3.085a.9.9 0 0 1 .147.298q.038.152.046.193a1 1 0 0 1 .045-.189.9.9 0 0 1 .157-.302l2.271-3.077c.165-.262.398-.474.673-.616a2.05 2.05 0 0 1 .938-.205h1.638l-4.248 5.742a4 4 0 0 0-.167.238q-.073.103-.133.213a.95.95 0 0 0-.112.459zm16.264-5.54v4.445a3.7 3.7 0 0 1-.868.601 5.3 5.3 0 0 1-1.015.38 7 7 0 0 1-1.12.192q-.58.052-1.175.052a5.7 5.7 0 0 1-2.296-.464 5.92 5.92 0 0 1-3.14-3.135 5.94 5.94 0 0 1 0-4.6 5.9 5.9 0 0 1 1.27-1.876 6 6 0 0 1 1.876-1.264 5.96 5.96 0 0 1 4.546-.024 5.9 5.9 0 0 1 1.848 1.22l-.08.073a1.1 1.1 0 0 1-.326.229 1 1 0 0 1-.39.076.9.9 0 0 1-.517-.161c-.4-.274-.835-.49-1.296-.64a4.8 4.8 0 0 0-1.49-.229 4.84 4.84 0 0 0-2.467.668q-.543.321-.992.765a4.8 4.8 0 0 0-.765.99q-.322.557-.495 1.173c-.12.423-.179.86-.177 1.3-.002.44.059.877.18 1.3a4.95 4.95 0 0 0 1.298 2.162 5 5 0 0 0 1.01.766 4.96 4.96 0 0 0 2.496.668 6 6 0 0 0 1.62-.22 5.7 5.7 0 0 0 1.481-.666v-2.775h-1.023a.95.95 0 0 1-.705-.294 1 1 0 0 1-.193-.31 1 1 0 0 1-.068-.37v-.033zm4.48 5.54h-1.008V8.48h4.043c.435-.003.865.083 1.265.253a3.24 3.24 0 0 1 1.719 1.72c.17.396.257.824.254 1.255a3.5 3.5 0 0 1-.757 2.151 3 3 0 0 1-.854.73c-.334.19-.704.31-1.087.35l3.817 5.08h-.475q-.83 0-1.224-.61l-3.359-4.47h-2.335zm0-10.534v4.445h3.035c.298.002.592-.057.866-.173a2.24 2.24 0 0 0 1.365-2.05 2.1 2.1 0 0 0-.177-.86 2.27 2.27 0 0 0-1.188-1.185 2.1 2.1 0 0 0-.866-.177zm11.08 10.534h-1.007V8.48h1.007zm3.89 0V8.48h4.245a5.7 5.7 0 0 1 2.909.789 5.9 5.9 0 0 1 2.075 2.074 5.74 5.74 0 0 1-.906 6.99 5.75 5.75 0 0 1-4.078 1.687zm4.245-1.007a4.6 4.6 0 0 0 1.862-.374 4.9 4.9 0 0 0 1.514-1.019 4.8 4.8 0 0 0 1.023-1.514 4.8 4.8 0 0 0 0-3.704 4.8 4.8 0 0 0-2.537-2.541 4.6 4.6 0 0 0-1.862-.375h-3.238v9.527zm13.094-9.02a6 6 0 0 1-.325-.24 1.65 1.65 0 0 0-.666-.323 2.4 2.4 0 0 0-.532-.047 2.56 2.56 0 0 0-1.623.58 2 2 0 0 0-.502.62c-.123.23-.186.487-.185.748-.008.253.031.504.117.741.085.203.223.379.399.511q.338.256.733.411.455.189 1.124.423.355.134.665.242.307.113.58.23.261.11.511.248.237.134.455.302c.363.27.64.64.798 1.064.157.442.234.909.229 1.378.007.47-.095.936-.298 1.36a3.1 3.1 0 0 1-.805 1.028c-.351.29-.755.509-1.188.648-.471.153-.964.23-1.459.225q-1.506 0-2.537-.894a4.1 4.1 0 0 1-.797-.975l.12-.072a1.03 1.03 0 0 1 .508-.153q.189 0 .37.052a.74.74 0 0 1 .315.19q.278.264.6.47.24.15.507.243.224.074.459.092.22.015.455.024c.327.01.653-.027.969-.11.315-.077.613-.212.878-.399.262-.185.48-.426.638-.705.171-.312.256-.665.246-1.021a2.5 2.5 0 0 0-.193-1.064 1.7 1.7 0 0 0-.532-.648 3.2 3.2 0 0 0-.81-.415q-.468-.167-1.007-.375-.685-.275-1.248-.507a4 4 0 0 1-.962-.552 2.2 2.2 0 0 1-.621-.785 2.8 2.8 0 0 1-.221-1.208 2.5 2.5 0 0 1 .298-1.224 3.2 3.2 0 0 1 .769-.939 3.6 3.6 0 0 1 1.064-.604 3.5 3.5 0 0 1 1.188-.213c.313-.004.624.041.923.133q.397.126.756.338.335.2.621.463.276.259.511.508l-.25.177a1 1 0 0 1-.221.117.9.9 0 0 1-.303.044.93.93 0 0 1-.521-.137M24.691 15.67c.82-6.408-3.71-12.268-10.119-13.087-6.408-.82-12.268 3.71-13.088 10.119s3.71 12.268 10.12 13.088c6.408.82 12.268-3.711 13.087-10.12"/><path fill="#262626" d="M13.621 14.25v1.121h2.456v1.876h-2.439v-.007c-.065 0-.133.007-.198.007-.362 0-.72-.071-1.055-.211a2.708 2.708 0 1 1 2.766-4.59h4.789a6.83 6.83 0 1 0-6.5 8.923h6.783v-7.122zm2.456 5.986h-2.262c-.085 0-.173.01-.266.01h-.197a5.708 5.708 0 1 1 4.797-8.921h-2.63a3.831 3.831 0 1 0-2.08 7.05h2.638zm3.035.01H17.2l.011-.006h-.01v-1.862h1.912zm0-2.996H17.2v-1.876h1.913z"/><path fill="#252f3f" d="M13.29 13.896v1.122h2.457v1.875h-2.441v-.006c-.065 0-.133.006-.197.006a2.7 2.7 0 0 1-2.247-1.197 2.72 2.72 0 0 1 .733-3.766 2.71 2.71 0 0 1 3.233.15h4.789a6.83 6.83 0 1 0-6.51 8.935h6.784V13.89zm2.457 5.986h-2.261c-.087 0-.173.01-.267.011h-.192a5.707 5.707 0 1 1 4.788-8.922h-2.628a3.832 3.832 0 1 0-2.08 7.042h2.637zm3.036.011H16.87l.009-.007h-.01v-1.872h1.913zm0-2.997H16.87V15.02h1.912z"/><path fill="#252f3f" d="M15.747 18.015h1.123v.533h-1.123zm-.909-2.998h.909v.534h1.121v-.534h.824z"/></g></svg>