<svg xmlns="http://www.w3.org/2000/svg" width="102" height="102" fill="none" viewBox="0 0 102 102"><path fill="#fff" fill-opacity=".08" d="M1.867 33.196a1.867 1.867 0 1 1-.001 3.734 1.867 1.867 0 0 1 0-3.734m16.428 0a1.867 1.867 0 1 1 0 3.734 1.867 1.867 0 0 1 0-3.734m16.426-.001a1.867 1.867 0 1 1 0 3.735 1.867 1.867 0 0 1 0-3.735m16.214 0a1.867 1.867 0 1 1-.001 3.735 1.867 1.867 0 0 1 .001-3.735M1.867 16.76a1.867 1.867 0 1 1-.001 3.735 1.867 1.867 0 0 1 0-3.734m16.428-.001a1.867 1.867 0 1 1-.001 3.735 1.867 1.867 0 0 1 0-3.734m16.427-.001a1.867 1.867 0 1 1 0 3.735 1.867 1.867 0 0 1 0-3.734m16.214-.001a1.867 1.867 0 1 1 0 3.735 1.867 1.867 0 0 1 0-3.734M1.867.325a1.867 1.867 0 1 1-.001 3.735 1.867 1.867 0 0 1 0-3.735m16.428 0a1.867 1.867 0 1 1-.001 3.735 1.867 1.867 0 0 1 0-3.735M34.72.326a1.867 1.867 0 1 1 0 3.734 1.867 1.867 0 0 1 0-3.734m16.214 0a1.867 1.867 0 1 1 0 3.734 1.867 1.867 0 0 1 0-3.734m15.97 32.87a1.867 1.867 0 1 1-.001 3.734 1.867 1.867 0 0 1 0-3.734m16.427 0a1.867 1.867 0 1 1 0 3.734 1.867 1.867 0 0 1 0-3.734m16.428 0c1.031 0 1.866.836 1.866 1.868a1.866 1.866 0 1 1-3.733 0c0-1.032.836-1.868 1.867-1.868M66.904 16.76a1.867 1.867 0 1 1-.001 3.735 1.867 1.867 0 0 1 0-3.734m16.427-.001a1.867 1.867 0 1 1 0 3.735 1.867 1.867 0 0 1 0-3.734m16.428-.001a1.867 1.867 0 1 1 0 3.734 1.867 1.867 0 0 1 0-3.733M66.904.325a1.867 1.867 0 1 1-.001 3.735 1.867 1.867 0 0 1 0-3.735m16.427 0a1.867 1.867 0 1 1 0 3.735 1.867 1.867 0 0 1 0-3.735m16.428 0a1.867 1.867 0 1 1 0 3.733 1.867 1.867 0 0 1 0-3.733M1.867 82.203a1.867 1.867 0 1 1-.001 3.735 1.867 1.867 0 0 1 0-3.735m16.428 0a1.867 1.867 0 1 1-.001 3.734 1.867 1.867 0 0 1 0-3.734m16.427 0a1.867 1.867 0 1 1 0 3.734 1.867 1.867 0 0 1 0-3.734m16.214 0a1.867 1.867 0 1 1 0 3.734 1.867 1.867 0 0 1 0-3.734M1.867 65.768a1.867 1.867 0 1 1-.001 3.734 1.867 1.867 0 0 1 0-3.734m16.428 0a1.867 1.867 0 1 1 0 3.734 1.867 1.867 0 0 1 0-3.734m16.426 0a1.867 1.867 0 1 1 0 3.734 1.867 1.867 0 0 1 0-3.734m16.214 0a1.867 1.867 0 1 1-.001 3.734 1.867 1.867 0 0 1 .001-3.734M1.867 98.265a1.867 1.867 0 1 1-.001 3.734 1.867 1.867 0 0 1 0-3.734m.001-48.932a1.867 1.867 0 1 1-.001 3.734 1.867 1.867 0 0 1 0-3.734m16.428 48.932a1.867 1.867 0 1 1 0 3.734 1.867 1.867 0 0 1 0-3.734m0-48.932a1.867 1.867 0 1 1 0 3.734 1.867 1.867 0 0 1 0-3.734M34.72 98.265a1.867 1.867 0 1 1 0 3.734 1.867 1.867 0 0 1 0-3.734m16.214 0a1.867 1.867 0 1 1-.001 3.735 1.867 1.867 0 0 1 .001-3.735M34.72 49.333a1.867 1.867 0 1 1 0 3.734 1.867 1.867 0 0 1 0-3.734m16.214 0a1.867 1.867 0 1 1 0 3.734 1.867 1.867 0 0 1 0-3.734m15.97 32.87a1.867 1.867 0 1 1-.001 3.735 1.867 1.867 0 0 1 0-3.735m16.427 0a1.867 1.867 0 1 1 0 3.735 1.867 1.867 0 0 1 0-3.735m16.428 0a1.867 1.867 0 1 1 0 3.733 1.867 1.867 0 0 1 0-3.733M66.904 65.768a1.867 1.867 0 1 1-.001 3.734 1.867 1.867 0 0 1 0-3.734m16.427 0a1.867 1.867 0 1 1 0 3.734 1.867 1.867 0 0 1 0-3.734m16.428 0a1.867 1.867 0 1 1 0 3.733 1.867 1.867 0 0 1 0-3.733M66.904 98.265a1.867 1.867 0 1 1-.001 3.734 1.867 1.867 0 0 1 0-3.734m.001-48.932a1.867 1.867 0 1 1-.001 3.734 1.867 1.867 0 0 1 0-3.734M83.33 98.265a1.867 1.867 0 1 1 0 3.734 1.867 1.867 0 0 1 0-3.734m0-48.932a1.867 1.867 0 1 1 0 3.734 1.867 1.867 0 0 1 0-3.734m16.428 48.932a1.867 1.867 0 1 1 0 3.738 1.867 1.867 0 0 1 0-3.738m0-48.932a1.867 1.867 0 1 1 0 3.733 1.867 1.867 0 0 1 0-3.733"/></svg>