<svg xmlns="http://www.w3.org/2000/svg" width="157" height="55" fill="none" viewBox="0 0 157 55"><path fill="#3056d3" d="M60.704 14.4q3.458 0 6.003 1.14 2.584 1.14 3.953 3.268c1.368 2.128 1.367 3.104 1.367 5.054q0 2.889-1.368 5.054-1.368 2.129-3.952 3.268-2.545 1.14-6.003 1.14h-6.005V41h-4.94V14.4zm-.229 14.744q3.231 0 4.902-1.368c1.672-1.368 1.673-2.216 1.673-3.914s-.558-3.002-1.673-3.914-2.748-1.368-4.901-1.368h-5.777v10.564zM79.462 14.4h4.94v22.42H98.31V41H79.46zm42.685 20.444h-13.3L106.224 41h-5.092l11.97-26.6h4.864L129.974 41h-5.168zm-1.634-3.876-5.016-11.628-4.978 11.628zm25.225.646V41h-4.94v-9.31l-10.45-17.29h5.282l7.79 12.958 7.866-12.958h4.864z"/><path fill="#fff" d="M20 47c11.046 0 20-8.954 20-20S31.046 7 20 7 0 15.954 0 27s8.954 20 20 20"/><path fill="#3056d3" fill-rule="evenodd" d="M11.231 15c-1.712 0-2.978 1.498-2.922 3.123.055 1.561-.016 3.583-.525 5.232-.51 1.653-1.374 2.7-2.784 2.835v1.518c1.41.135 2.273 1.182 2.784 2.836.51 1.649.58 3.67.525 5.231-.056 1.625 1.21 3.123 2.922 3.123h17.54c1.712 0 2.978-1.498 2.922-3.123-.055-1.56.016-3.583.525-5.231.51-1.654 1.372-2.701 2.782-2.836V26.19c-1.41-.135-2.271-1.182-2.782-2.836-.51-1.648-.58-3.67-.525-5.23.056-1.626-1.21-3.124-2.922-3.124zM25.34 29.71c0 2.238-1.669 3.595-4.438 3.595h-4.715a.51.51 0 0 1-.508-.508V21.102a.51.51 0 0 1 .508-.509h4.688c2.31 0 3.825 1.251 3.825 3.172 0 1.348-1.02 2.554-2.319 2.766v.07c1.768.194 2.959 1.419 2.959 3.11m-4.952-7.505H17.7v3.797h2.264c1.75 0 2.715-.705 2.715-1.964 0-1.181-.83-1.833-2.291-1.833M17.7 27.51v4.184h2.787c1.822 0 2.787-.731 2.787-2.106s-.992-2.079-2.905-2.079z" clip-rule="evenodd"/></svg>